<?xml version="1.0" standalone="no"?>
<!DOCTYPE svg PUBLIC "-//W3C//DTD SVG 20010904//EN"
 "http://www.w3.org/TR/2001/REC-SVG-20010904/DTD/svg10.dtd">
<svg version="1.0" xmlns="http://www.w3.org/2000/svg"
 width="4008.000000pt" height="4008.000000pt" viewBox="0 0 4008.000000 4008.000000"
 preserveAspectRatio="xMidYMid meet">
<metadata>
Created by potrace 1.14, written by Peter Selinger 2001-2017
</metadata>
<g transform="translate(0.000000,4008.000000) scale(0.100000,-0.100000)"
fill="#000000" stroke="none">
<path d="M16438 23044 c-2 -2 -33 -6 -68 -9 -77 -7 -110 -10 -170 -19 -75 -12
-97 -16 -173 -32 -39 -8 -81 -17 -92 -20 -11 -2 -58 -15 -105 -29 -47 -14 -92
-27 -100 -29 -38 -9 -263 -102 -335 -139 -98 -49 -279 -157 -283 -169 -2 -4
-9 -8 -15 -8 -7 0 -31 -15 -53 -33 -23 -18 -59 -46 -80 -63 -125 -97 -304
-277 -387 -389 -4 -5 -17 -21 -28 -35 -27 -32 -140 -204 -165 -250 -11 -19
-22 -37 -25 -40 -28 -24 -229 -480 -229 -520 0 -5 -5 -21 -12 -37 -6 -15 -12
-32 -13 -38 -2 -5 -8 -30 -16 -55 -24 -84 -46 -171 -55 -215 -2 -11 -9 -45
-16 -75 -6 -30 -12 -64 -14 -75 -1 -11 -5 -36 -9 -55 -3 -19 -8 -51 -10 -70
-2 -19 -4 -35 -5 -35 -1 0 -3 -16 -5 -35 -2 -19 -6 -53 -9 -75 -21 -147 -29
-651 -14 -815 4 -41 10 -101 13 -132 2 -32 7 -70 9 -85 2 -16 7 -48 11 -73 12
-79 14 -95 31 -176 8 -43 17 -88 18 -99 2 -11 4 -20 5 -20 2 0 5 -11 7 -25 10
-55 57 -219 96 -329 40 -115 46 -131 89 -226 12 -27 23 -52 23 -55 2 -8 65
-129 99 -190 26 -47 86 -143 109 -175 79 -107 135 -181 161 -211 57 -66 211
-218 262 -259 28 -22 59 -48 70 -58 48 -44 263 -178 381 -238 71 -35 132 -68
135 -72 3 -5 8 -7 10 -6 4 3 30 -7 109 -38 192 -76 461 -140 705 -168 144 -17
220 -20 470 -20 305 0 431 8 680 40 97 13 311 62 375 86 14 5 34 11 45 13 11
2 64 20 117 40 53 20 101 36 107 36 15 0 14 7 -6 71 -9 30 -17 59 -19 64 -1 6
-14 50 -29 99 -15 49 -28 94 -30 100 -1 6 -5 18 -8 26 -7 19 -30 92 -33 105
-1 6 -21 71 -44 145 -77 249 -120 392 -124 405 -18 69 -31 95 -44 90 -58 -22
-166 -55 -180 -55 -10 0 -23 -5 -30 -12 -7 -7 -12 -9 -12 -5 0 3 -10 3 -23 -2
-13 -5 -41 -12 -61 -15 -21 -4 -42 -8 -45 -11 -4 -2 -34 -7 -67 -10 -32 -4
-61 -8 -64 -10 -14 -9 -203 -19 -350 -19 -196 0 -320 11 -460 39 -14 3 -36 7
-50 10 -119 24 -318 108 -436 185 -117 77 -242 198 -292 283 -9 15 -20 27 -24
27 -4 0 -8 4 -8 9 0 5 -19 39 -41 77 -23 37 -42 72 -43 78 -1 6 -7 21 -14 33
-47 86 -131 368 -147 498 -2 11 -6 38 -9 60 -18 123 -29 268 -30 407 -1 65 -5
118 -9 118 -5 0 -5 5 -1 11 4 6 8 66 9 133 3 144 16 285 40 430 8 45 13 71 20
106 3 14 7 34 9 45 3 11 12 47 21 80 9 33 18 67 20 75 2 8 4 16 5 18 2 1 3 5
5 10 16 57 92 239 105 252 3 3 14 23 25 45 50 102 152 227 273 338 17 15 35
27 41 27 6 0 11 4 11 9 0 7 144 101 155 101 3 0 32 13 65 29 47 23 175 69 210
76 3 1 19 4 35 8 17 4 44 9 60 12 17 3 41 7 55 10 123 25 502 25 620 0 14 -3
41 -8 60 -11 37 -6 41 -7 192 -54 78 -24 204 -70 265 -96 7 -4 21 26 38 83 15
48 30 99 35 113 5 14 21 66 36 115 15 50 36 117 46 150 11 33 22 67 24 75 2 8
17 60 34 115 18 55 40 127 50 160 64 211 78 254 83 262 4 6 -19 21 -51 35 -75
34 -247 98 -261 98 -6 0 -19 4 -29 10 -14 8 -90 32 -147 46 -5 2 -19 5 -30 8
-71 19 -104 27 -135 32 -19 3 -43 7 -52 10 -10 3 -30 7 -45 10 -16 2 -41 6
-58 9 -16 2 -52 7 -80 10 -27 3 -66 8 -85 11 -39 6 -587 14 -592 8z"/>
<path d="M26239 22965 c-3 -80 0 -226 6 -234 3 -6 3 -11 -2 -11 -9 0 -9 -160
0 -184 4 -9 3 -16 -1 -16 -6 0 -8 -199 -2 -225 1 -5 1 -12 0 -15 -6 -17 -3
-1110 3 -1110 5 0 5 -5 1 -11 -9 -15 -9 -213 0 -228 4 -6 4 -11 -1 -11 -4 0
-8 -52 -8 -115 0 -63 4 -115 8 -115 5 0 5 -5 1 -11 -9 -15 -9 -213 0 -228 4
-6 4 -11 -1 -11 -4 0 -7 -249 -5 -552 1 -304 2 -557 2 -563 0 -5 -1 -58 -2
-118 0 -59 1 -110 5 -113 3 -3 3 -12 0 -20 -9 -24 -9 -354 0 -354 5 0 5 -5 1
-11 -6 -10 -10 -231 -4 -254 1 -5 1 -12 0 -15 -2 -7 -3 -1093 0 -1105 1 -5 1
-14 0 -20 -6 -33 -1 -188 7 -196 5 -5 268 -8 674 -7 l664 3 0 1251 c0 830 3
1250 10 1248 6 -2 28 -6 50 -10 22 -3 51 -8 65 -11 41 -9 1452 -10 1485 -2 17
4 50 11 75 14 24 4 48 8 51 11 4 2 8 -4 11 -14 2 -9 3 -574 3 -1255 l-1 -1237
675 2 674 3 -2 65 c-1 36 -2 72 -2 80 0 8 1 44 0 80 0 36 0 72 0 80 1 8 1 44
0 80 0 36 0 72 0 80 1 8 1 44 0 80 0 36 0 72 0 80 1 8 1 44 0 80 0 36 0 72 0
80 1 8 1 44 0 80 0 36 0 72 0 80 1 8 1 44 0 80 0 36 0 72 0 80 1 8 1 44 0 80
0 36 0 72 0 80 1 8 1 44 0 80 0 36 0 72 0 80 1 8 1 44 0 80 0 36 0 72 0 80 1
8 1 44 0 80 0 36 0 72 0 80 1 8 1 44 0 80 0 36 0 72 0 80 1 8 1 44 0 80 0 36
0 72 0 80 1 8 1 44 0 80 0 36 0 72 0 80 1 8 1 44 0 80 0 65 0 79 2 103 1 18 0
129 -1 152 -1 11 -1 26 -1 33 3 48 3 72 -1 105 -3 21 -2 39 2 42 4 2 4 25 0
49 -4 25 -4 50 0 56 4 7 6 24 4 38 -2 15 -5 42 -7 60 -3 18 -1 34 3 37 4 2 4
25 0 49 -4 25 -4 50 0 56 4 7 6 24 4 38 -2 15 -5 42 -7 60 -3 18 -1 34 3 37 4
2 4 25 0 49 -4 25 -4 50 0 56 4 7 6 24 4 38 -2 15 -5 42 -7 60 -3 18 -1 34 3
37 4 2 4 25 0 49 -4 25 -4 50 0 56 4 7 6 25 4 41 -2 16 -6 43 -8 59 -2 17 0
32 4 35 4 2 4 25 0 49 -4 25 -4 50 0 56 4 7 6 25 4 41 -2 16 -6 43 -8 59 -2
17 0 32 4 35 4 2 4 25 0 49 -4 25 -4 50 0 56 4 7 6 25 4 41 -2 16 -6 43 -8 59
-2 17 0 32 4 35 4 2 4 25 0 49 -4 25 -4 50 0 56 4 7 5 26 3 43 -2 18 -5 44 -7
60 -2 15 0 29 4 32 4 2 4 25 0 49 -4 25 -4 50 0 56 4 7 6 25 4 41 -2 16 -6 43
-8 59 -2 17 0 32 4 35 4 2 4 25 0 49 -4 25 -4 50 0 56 4 7 6 25 4 41 -2 16 -6
43 -8 59 -2 17 0 32 4 35 4 2 4 25 0 49 -4 25 -4 50 0 56 4 7 6 25 4 41 -2 16
-6 43 -8 59 -2 17 0 32 4 35 4 2 4 25 0 49 -4 25 -4 50 0 56 4 7 6 25 4 41 -2
16 -6 43 -8 59 -2 17 0 32 4 35 4 2 4 25 0 49 -4 25 -4 50 0 56 4 7 6 25 4 41
-2 16 -6 43 -8 59 -2 17 0 32 4 35 4 2 4 25 0 49 -4 25 -4 50 0 56 4 6 5 28 3
48 -3 20 -6 51 -7 67 l-1 30 -660 1 c-363 0 -665 -1 -671 -3 -7 -3 -10 -342
-9 -1101 0 -603 -1 -1101 -2 -1107 -2 -7 -298 -10 -866 -9 -474 1 -866 2 -872
3 -7 1 -10 377 -10 1106 0 608 -2 1106 -5 1106 -3 1 -305 2 -672 3 -662 1
-668 1 -669 -19z"/>
<path d="M36407 22870 l-189 -5 -48 -93 c-27 -51 -55 -100 -62 -109 -7 -9 -12
-18 -10 -20 2 -3 -53 -115 -89 -180 -12 -21 -55 -103 -97 -183 -42 -80 -99
-190 -129 -245 -43 -82 -83 -163 -83 -169 0 0 152 -1 337 -1 l338 0 2 -2290
c1 -1259 2 -2304 2 -2322 1 -31 2 -32 59 -39 31 -3 65 -8 75 -10 9 -2 25 -6
35 -8 9 -2 51 -9 92 -16 80 -12 82 -13 206 -35 79 -14 125 -20 234 -30 30 -3
73 -7 95 -10 276 -31 432 -38 795 -39 260 -1 394 4 480 18 14 2 48 8 75 12 28
4 55 8 60 10 33 7 133 26 147 28 10 1 21 5 24 9 4 4 16 7 26 7 10 0 26 4 36 9
9 6 42 17 72 27 83 25 339 152 379 188 10 9 21 16 25 16 9 0 61 40 139 105 68
56 157 149 217 225 27 36 55 70 60 77 6 7 10 16 10 22 0 5 4 11 8 13 18 7 138
233 175 328 5 14 13 32 17 40 6 13 38 114 46 145 1 6 9 37 18 70 9 33 19 75
22 94 9 54 13 71 17 79 3 4 8 32 11 62 7 56 13 95 16 95 1 0 3 16 4 35 2 19 7
76 12 125 10 103 11 573 1 655 -4 30 -9 78 -12 105 -3 28 -8 66 -11 85 -3 19
-7 44 -9 56 -38 269 -164 600 -314 824 -122 183 -203 266 -416 428 -96 73
-247 145 -465 222 -50 18 -227 59 -305 70 -44 7 -88 14 -97 15 -77 15 -341 21
-488 11 -158 -11 -194 -17 -315 -51 -134 -38 -124 -38 -115 -4 5 16 7 29 5 29
-2 0 3 19 11 42 13 36 15 142 15 693 0 357 0 682 -1 721 l0 71 -477 -1 c-263
-1 -563 -3 -666 -6z m1723 -2523 c14 -3 43 -8 65 -12 111 -20 272 -89 341
-147 56 -46 164 -160 164 -173 0 -2 12 -21 26 -42 25 -37 31 -49 74 -147 31
-70 70 -204 73 -248 1 -21 4 -38 7 -38 3 0 6 -8 7 -17 1 -10 5 -56 9 -103 13
-148 7 -407 -11 -490 -4 -14 -9 -38 -12 -55 -8 -44 -14 -69 -38 -145 -15 -46
-66 -151 -103 -209 -68 -107 -153 -189 -253 -244 -59 -32 -185 -78 -193 -70
-3 4 -6 2 -6 -3 0 -5 -10 -10 -23 -11 -12 -1 -62 -8 -112 -16 -87 -13 -391
-16 -460 -3 -16 2 -50 8 -75 11 -24 4 -48 9 -52 11 -4 3 -6 478 -5 1057 l2
1052 60 12 c72 15 124 21 230 29 44 4 81 7 83 9 4 3 176 -3 202 -8z"/>
<path d="M1743 22004 l0 -174 1046 0 1046 0 -1 -170 c-1 -94 -3 -173 -6 -176
-7 -6 -30 -7 -76 -1 -18 2 -35 0 -38 -5 -3 -5 -9 -6 -13 -3 -12 7 -139 10
-146 3 -3 -3 -22 -2 -41 2 -19 5 -37 4 -40 -1 -3 -5 -9 -7 -14 -4 -7 5 -102 7
-170 4 -8 0 -41 1 -72 2 -32 2 -60 0 -63 -3 -3 -3 -22 -2 -41 2 -19 5 -37 4
-40 -1 -3 -5 -9 -7 -13 -4 -12 7 -139 10 -146 3 -3 -3 -22 -2 -41 2 -19 5 -37
4 -40 -1 -3 -5 -9 -7 -14 -4 -7 5 -96 7 -170 4 -8 0 -59 1 -113 2 -53 1 -100
0 -103 -3 -3 -3 -21 -2 -40 2 -19 5 -37 4 -40 -1 -3 -5 -9 -7 -13 -4 -12 7
-139 10 -146 3 -3 -3 -22 -2 -41 2 -19 5 -37 4 -40 -1 -3 -5 -9 -7 -13 -4 -12
7 -139 10 -146 3 -3 -3 -22 -2 -41 2 -19 5 -37 4 -40 -1 -3 -5 -9 -7 -13 -4
-12 7 -139 10 -146 3 -3 -3 -22 -2 -41 2 -19 5 -37 4 -40 -1 -3 -5 -9 -7 -13
-4 -5 2 -39 5 -77 5 -94 0 -115 1 -146 4 -16 1 -28 -2 -28 -7 0 -4 -4 -6 -8
-3 -12 7 -200 11 -207 4 -3 -3 -22 -2 -41 2 -19 5 -37 4 -40 -1 -3 -5 -9 -7
-13 -4 -12 7 -139 10 -146 3 -3 -3 -22 -2 -41 2 -19 5 -37 4 -40 -1 -3 -5 -9
-7 -13 -4 -12 7 -139 10 -146 3 -3 -3 -22 -2 -41 2 -19 5 -37 4 -40 -1 -3 -5
-9 -7 -13 -4 -12 7 -139 10 -146 3 -3 -3 -22 -2 -41 2 -19 5 -37 4 -40 -1 -3
-5 -9 -7 -13 -4 -5 2 -39 5 -77 5 -94 0 -115 1 -147 4 -15 1 -27 0 -27 -3 0
-4 -20 -5 -45 -3 l-45 4 0 -175 0 -175 2086 0 c1147 -1 2088 -3 2091 -6 4 -4
6 -186 4 -307 l-1 -35 -1707 0 c-940 1 -1724 0 -1743 -2 l-35 -4 2 -154 c0
-85 1 -162 2 -172 1 -17 41 -18 859 -17 471 0 863 -1 869 -3 11 -4 17 -95 13
-217 0 -11 -1 -45 -1 -75 l-1 -55 -344 1 c-341 0 -345 0 -349 -20 -2 -12 -4
-77 -3 -146 0 -69 -1 -138 -1 -155 l-1 -30 -691 0 c-380 1 -693 -3 -696 -8 -7
-11 -6 -328 1 -335 3 -2 395 -4 871 -4 l865 0 1 -87 c2 -246 -4 -287 -37 -261
-6 6 -13 7 -16 4 -3 -3 -71 -6 -151 -6 l-145 -1 0 -156 c0 -86 -1 -164 -1
-173 -1 -17 -33 -18 -520 -18 -406 0 -520 -3 -523 -12 -2 -7 -3 -85 -3 -173
l1 -160 700 -1 699 -1 1 51 c1 60 9 121 25 179 6 23 13 49 14 58 6 31 58 154
88 209 119 219 326 400 547 479 19 7 44 17 55 22 98 43 468 59 526 23 6 -3 20
-7 32 -9 36 -4 111 -28 135 -43 12 -8 22 -11 22 -8 0 12 168 -82 198 -111 7
-7 17 -13 22 -13 11 0 165 -152 198 -195 42 -55 92 -137 92 -150 0 -7 3 -15 8
-17 10 -4 66 -134 63 -146 -1 -1 5 -17 12 -35 8 -17 18 -50 22 -72 5 -22 10
-47 12 -55 4 -16 14 -125 14 -151 0 -16 106 -17 1395 -17 l1394 1 1 21 c4 105
32 245 64 323 8 18 12 33 10 33 -4 0 66 138 88 175 59 98 180 227 282 299 120
87 303 162 442 182 60 9 243 10 304 2 326 -45 624 -258 777 -555 35 -69 76
-173 88 -225 2 -10 6 -27 9 -38 10 -40 13 -56 20 -115 4 -33 7 -70 7 -81 l-2
-22 523 0 523 0 1 172 0 171 174 5 174 5 0 520 0 520 -172 0 c-147 0 -173 2
-174 15 0 8 -1 83 -1 165 0 83 -4 157 -8 165 -5 9 -20 16 -35 18 -15 1 -32 5
-38 9 -7 4 -16 8 -22 9 -5 1 -44 12 -85 24 -41 12 -93 26 -115 32 -22 5 -47
12 -55 15 -8 4 -19 7 -25 8 -5 0 -17 4 -25 7 -8 3 -42 14 -75 23 -33 9 -76 21
-95 27 -19 5 -48 12 -65 15 -16 3 -35 9 -40 14 -6 4 -22 10 -35 13 -14 2 -74
18 -135 36 -60 17 -118 33 -128 35 -10 2 -55 15 -100 29 -45 13 -125 37 -177
51 -52 15 -102 29 -110 32 -8 3 -24 8 -34 10 -11 2 -39 10 -63 18 -23 8 -55
17 -70 20 -16 3 -63 16 -105 29 -43 14 -78 22 -78 19 0 -3 -6 -1 -12 4 -7 6
-26 13 -43 17 -33 7 -132 35 -155 44 -8 3 -23 7 -34 9 -49 9 -143 46 -189 73
-76 45 -91 54 -97 60 -10 10 -46 31 -72 43 -16 6 -28 15 -28 19 0 4 -4 8 -10
8 -5 0 -36 17 -67 37 -32 21 -67 43 -78 49 -75 42 -311 190 -313 196 -2 4 -8
8 -12 8 -5 0 -87 48 -182 106 -95 59 -189 116 -208 127 -19 12 -37 24 -40 27
-3 3 -16 11 -29 18 -13 8 -38 22 -55 32 -29 16 -719 439 -835 512 -29 18 -68
42 -87 53 -18 11 -87 52 -151 91 l-118 72 -1916 0 -1915 0 -1 -174z"/>
<path d="M20097 21454 c-1 -1 -45 -5 -97 -8 -307 -22 -629 -80 -948 -172 -7
-2 -14 -4 -17 -4 -3 0 -24 -8 -47 -16 -24 -9 -50 -17 -58 -19 -58 -14 -125
-44 -125 -56 1 -8 7 -43 14 -79 18 -84 16 -75 36 -150 9 -36 19 -72 21 -80 2
-8 11 -42 20 -75 9 -33 17 -64 18 -70 2 -5 9 -30 16 -55 7 -25 14 -49 15 -55
2 -5 13 -43 25 -84 12 -41 23 -81 26 -90 10 -45 64 -224 67 -227 2 -2 24 2 48
9 24 8 49 14 54 16 6 1 41 11 78 22 37 11 81 22 96 24 16 2 37 8 48 13 10 6
20 10 23 9 5 0 41 6 100 18 35 7 179 34 212 39 163 27 453 27 624 0 78 -12
191 -45 251 -74 130 -60 200 -172 219 -347 l6 -62 -143 6 c-245 10 -632 4
-658 -11 -3 -2 -33 -6 -66 -10 -62 -6 -105 -13 -141 -21 -12 -3 -39 -7 -60
-11 -21 -3 -57 -10 -79 -15 -22 -5 -50 -12 -63 -15 -79 -17 -330 -109 -367
-134 -5 -4 -41 -24 -80 -45 -210 -113 -415 -325 -522 -540 -28 -55 -68 -165
-77 -211 -3 -10 -9 -39 -15 -64 -18 -79 -25 -171 -25 -320 0 -192 12 -306 49
-445 14 -54 22 -79 44 -140 20 -54 105 -219 121 -235 3 -3 25 -32 50 -65 61
-81 129 -147 225 -217 44 -32 85 -62 90 -66 15 -12 215 -108 255 -122 19 -6
44 -16 55 -20 33 -13 145 -44 196 -54 8 -2 25 -6 39 -9 14 -4 39 -9 55 -11 17
-3 41 -7 55 -10 14 -3 43 -7 65 -10 22 -3 58 -8 80 -11 221 -32 714 -37 970
-10 22 2 65 7 95 10 52 5 71 8 145 20 17 3 50 7 75 11 25 3 53 7 62 10 17 5
42 10 88 19 14 2 108 23 210 46 102 22 193 42 203 44 9 2 21 6 26 10 5 3 22 7
38 10 26 4 55 11 188 48 l50 13 0 1320 c0 725 -4 1351 -9 1389 -4 39 -10 81
-11 95 -1 14 -8 52 -14 85 -7 33 -14 69 -16 80 -11 67 -65 237 -100 320 -10
22 -16 40 -14 40 2 0 -6 14 -19 32 -12 17 -22 34 -22 37 0 10 -64 111 -72 114
-4 2 -8 8 -8 14 0 5 -6 15 -12 23 -7 7 -28 32 -47 55 -129 159 -325 295 -576
400 -26 11 -159 53 -165 53 -3 0 -16 4 -30 9 -14 5 -45 13 -70 18 -25 5 -56
12 -70 15 -64 13 -140 25 -195 30 -33 3 -80 8 -105 11 -43 5 -398 12 -403 8z
m633 -2449 c25 -3 54 -7 65 -8 20 -2 20 -10 23 -439 1 -241 1 -438 -1 -438 -2
0 -28 -4 -58 -10 -123 -21 -133 -22 -342 -30 -23 -1 -44 -1 -47 0 -3 1 -39 3
-80 5 -321 16 -519 141 -560 353 -15 81 -6 208 21 275 51 131 203 233 404 271
17 3 44 8 60 11 17 3 59 8 95 11 36 4 66 7 68 8 5 5 309 -3 352 -9z"/>
<path d="M24980 21443 c0 -4 -24 -8 -53 -9 -74 -1 -144 -10 -232 -31 -16 -4
-32 -7 -35 -8 -32 -6 -135 -47 -216 -86 -98 -47 -174 -98 -264 -178 l-45 -39
-5 157 -5 158 -682 0 c-563 0 -685 -2 -694 -13 -6 -8 -8 -14 -4 -14 4 0 3 -6
-3 -13 -6 -6 -123 -235 -260 -508 l-249 -495 328 0 c285 1 330 -1 333 -14 2
-8 4 -735 4 -1615 0 -880 1 -1607 1 -1616 1 -15 54 -17 616 -17 l615 0 1 1167
c0 641 2 1182 3 1201 5 67 18 175 21 180 2 3 6 23 9 45 4 22 12 58 18 80 6 22
12 45 14 50 4 18 47 110 53 115 3 3 13 18 21 34 21 41 107 128 165 168 119 82
224 122 398 154 103 18 146 26 182 30 50 6 316 6 373 0 27 -3 42 0 43 7 1 7 2
252 3 544 1 349 -2 533 -9 534 -27 3 -66 7 -120 13 -73 8 -175 17 -195 16 -76
-2 -111 -1 -120 5 -5 3 -10 3 -10 -2z"/>
<path d="M31678 21404 c-3 -3 -19 -6 -34 -7 l-29 -2 1 -1205 c0 -1054 5 -1467
18 -1489 2 -3 7 -37 10 -76 4 -38 9 -83 12 -100 3 -16 7 -43 9 -60 2 -16 7
-41 10 -55 4 -14 9 -38 11 -55 6 -33 26 -108 45 -170 7 -22 14 -43 15 -47 1
-5 3 -10 4 -13 1 -3 3 -8 5 -12 1 -5 7 -21 13 -36 7 -16 12 -30 12 -33 0 -2
23 -52 50 -109 80 -166 154 -275 271 -396 73 -75 161 -149 178 -149 6 0 11 -4
11 -9 0 -5 9 -13 20 -16 11 -3 26 -12 32 -19 7 -6 45 -27 83 -46 39 -19 72
-37 75 -40 3 -3 21 -11 40 -18 19 -8 56 -22 82 -32 49 -19 219 -64 278 -74 19
-3 45 -8 57 -10 28 -6 126 -18 178 -22 22 -1 40 -3 40 -4 0 -2 45 -7 140 -16
170 -16 783 -9 881 10 11 2 48 7 84 11 36 4 74 9 85 11 11 2 38 7 60 9 22 3
51 7 65 10 63 13 77 16 110 21 19 3 53 10 75 16 22 6 49 12 60 13 43 6 183 39
205 48 8 4 26 8 40 11 45 8 273 77 298 90 l25 13 1 2026 1 2026 -45 1 c-25 0
-54 1 -65 0 -11 0 -85 0 -165 0 -80 0 -149 0 -155 0 -70 -1 -231 -1 -270 -1
-42 1 -183 2 -285 2 -14 0 -79 -2 -145 -3 l-120 -3 1 -1535 c0 -844 4 -1562 8
-1596 5 -47 4 -61 -6 -61 -7 0 -26 -4 -43 -8 -51 -11 -506 -14 -575 -4 -260
41 -428 181 -504 419 -35 108 -45 163 -63 330 -4 36 -7 603 -7 1261 l-1 1196
-60 2 c-82 2 -94 2 -138 -2 -21 -1 -40 0 -43 4 -2 4 -17 4 -32 0 -15 -4 -43
-6 -62 -4 -19 2 -39 4 -45 4 -11 0 -209 0 -240 0 -26 0 -294 0 -320 0 -11 0
-37 -2 -58 -4 -21 -1 -40 0 -43 4 -2 4 -17 4 -32 0 -29 -8 -85 -7 -100 3 -5 3
-12 3 -14 0z"/>
<path d="M3000 19025 c-30 -7 -67 -17 -82 -23 -16 -7 -28 -10 -28 -7 0 6 -128
-64 -154 -84 -36 -28 -150 -145 -172 -176 -38 -55 -92 -179 -107 -248 -18 -80
-16 -275 4 -317 1 -3 3 -9 3 -15 4 -27 54 -137 88 -190 39 -61 139 -166 193
-200 31 -20 154 -85 158 -84 1 1 22 -4 47 -11 76 -20 92 -22 185 -22 76 0 150
6 150 12 0 1 13 4 28 6 87 14 234 102 323 191 94 95 173 252 191 378 5 36 5
190 0 210 -3 11 -10 43 -17 70 -14 64 -81 197 -128 255 -99 124 -223 206 -369
246 -73 20 -241 25 -313 9z"/>
<path d="M7917 19034 c-2 -2 -21 -6 -43 -10 -21 -3 -47 -10 -56 -15 -10 -5
-18 -7 -18 -4 0 3 -11 -2 -25 -11 -14 -9 -25 -14 -25 -10 0 9 -89 -43 -150
-87 -51 -38 -160 -153 -169 -180 -2 -7 -14 -28 -26 -47 -58 -95 -85 -214 -81
-355 6 -203 91 -379 247 -510 49 -41 163 -107 209 -120 3 -1 12 -4 20 -8 97
-37 285 -40 405 -6 42 11 153 58 170 71 6 5 36 28 69 53 32 24 70 59 85 77 14
17 34 40 44 51 27 28 104 185 117 237 31 133 27 303 -9 385 -5 11 -17 40 -26
64 -21 56 -91 165 -136 211 -47 48 -124 110 -137 110 -6 0 -12 3 -14 8 -9 20
-142 74 -218 89 -32 5 -228 12 -233 7z"/>
</g>
</svg>
